<svg width="24" height="16" viewBox="0 0 24 16" fill="none" xmlns="http://www.w3.org/2000/svg">
<path id="Vector" d="M2.13333 0C0.960683 0 0 1.02931 0 2.28571V13.7143C0 14.9707 0.960683 16 2.13333 16H21.8667C23.0393 16 24 14.9707 24 13.7143V2.28571C24 1.02931 23.0393 0 21.8667 0H2.13333ZM2.13333 1.14286H21.8667C21.9214 1.14286 21.9727 1.15257 22.025 1.16057L12.5167 9.84809C12.2711 10.0723 11.7289 10.0723 11.4833 9.84809L1.975 1.16057C2.02728 1.15257 2.07857 1.14286 2.13333 1.14286ZM1.13333 1.89286L8.15833 8.31252L1.14167 14.1429C1.09477 14.0125 1.06667 13.8649 1.06667 13.7143V2.28571C1.06667 2.14529 1.09229 2.01591 1.13333 1.89286ZM22.8667 1.89286C22.9077 2.01591 22.9333 2.14529 22.9333 2.28571V13.7143C22.9333 13.8649 22.9052 14.0125 22.8583 14.1429L15.8417 8.31252L22.8667 1.89286ZM8.99167 9.07143L10.7917 10.7143C11.4834 11.3459 12.5166 11.3459 13.2083 10.7143L15.0083 9.07143L21.9667 14.8482C21.933 14.8514 21.9013 14.8571 21.8667 14.8571H2.13333C2.09869 14.8571 2.06702 14.8514 2.03333 14.8482L8.99167 9.07143Z" fill="#EC5C29"/>
</svg>
