<svg width="21" height="20" viewBox="0 0 21 20" fill="none" xmlns="http://www.w3.org/2000/svg">
<path id="Vector" d="M6.97584 7.30902C8.56458 9.71545 10.7091 11.7649 13.2279 13.2832L13.6204 12.647L13.6263 12.6374L13.6282 12.6349C14.2338 11.6948 15.5162 11.3858 16.603 11.8722L16.6034 11.8724C17.1698 12.1275 17.7556 12.3548 18.3457 12.5476L18.3454 12.5486L18.346 12.5474C19.4978 12.9286 20.2208 14.0152 19.9683 15.1041L19.9675 15.1076L19.9674 15.1076L19.522 16.8829C19.3527 17.6823 18.7802 18.3519 17.9402 18.7662C17.3507 19.0571 16.676 19.2 15.9787 19.2C15.2545 19.2 14.5028 19.0465 13.7879 18.7404C8.21574 16.3594 3.77393 12.111 1.28271 6.77637L6.97584 7.30902ZM6.97584 7.30902L7.63627 6.93618L7.63628 6.9362L7.63916 6.93452C8.62224 6.35771 8.9567 5.11912 8.44028 4.06437L8.44007 4.06395C8.17402 3.52378 7.93674 2.96406 7.7347 2.39906L7.73449 2.39847C7.33228 1.28472 6.19685 0.609931 5.07215 0.847274L5.07215 0.847242L5.06865 0.848046L3.23315 1.26992C2.39246 1.43249 1.69158 1.97654 1.25563 2.78538L1.2556 2.78543C0.633939 3.93949 0.653732 5.43157 1.28266 6.77626L6.97584 7.30902ZM18.8358 14.8331C18.9306 14.377 18.5898 13.8261 17.9716 13.6216C17.9715 13.6216 17.9714 13.6215 17.9713 13.6215L18.0341 13.4316L18.8358 14.8331ZM18.8358 14.8331L18.8326 14.8456L18.3847 16.632L18.3845 16.6319L18.3829 16.6395C18.2892 17.0858 17.957 17.4875 17.4123 17.7564L18.8358 14.8331ZM2.28986 3.31126C1.84491 4.13749 1.85377 5.25689 2.34552 6.30812L2.34557 6.30824C4.71676 11.3859 8.94632 15.4336 14.2585 17.7035L14.2587 17.7036C15.3627 18.1764 16.5419 18.1856 17.4122 17.7565L2.28986 3.31126ZM2.28986 3.31126C2.56768 2.79559 2.98697 2.47276 3.47781 2.37833L3.47783 2.37846L3.4848 2.37686L5.32943 1.95309C5.39186 1.9399 5.45553 1.93361 5.52002 1.93361C5.97709 1.93361 6.44979 2.26432 6.63355 2.77274C6.84952 3.3762 7.10342 3.97506 7.38754 4.55205C7.65627 5.1013 7.4861 5.69992 7.04302 5.96076L5.87089 6.62263L5.87079 6.62269L5.96913 6.79684M2.28986 3.31126L5.66365 7.40371L5.83386 7.29869M5.96913 6.79684C5.88138 6.84633 5.81815 6.92661 5.79286 7.02082C5.76757 7.11503 5.78213 7.21511 5.83386 7.29869M5.96913 6.79684L7.14287 6.13406L5.96913 6.79684ZM5.83386 7.29869L5.6638 7.40395M5.83386 7.29869L5.6638 7.40395M5.6638 7.40395C7.47874 10.3454 10.0623 12.8165 13.1351 14.5516L13.1354 14.5518C13.4068 14.7043 13.7623 14.6228 13.9283 14.3528L5.6638 7.40395ZM14.618 13.2345L13.9284 14.3528L14.618 13.2345ZM14.618 13.2345C14.8946 12.8082 15.5289 12.6392 16.1141 12.9011C16.1141 12.9011 16.1142 12.9011 16.1142 12.9012L16.1959 12.7186L14.618 13.2345Z" fill="#EC5C29" stroke="#EC5C29" stroke-width="0.4"/>
</svg>
